<svg width="24" height="32" viewBox="0 0 24 32" fill="none" xmlns="http://www.w3.org/2000/svg">
<g clip-path="url(#clip0_2167_43949)">
<path d="M4.19202 0H14.9018L23.9682 9.45411V27.8392C23.9682 30.135 22.1032 32 19.8012 32H4.19206C1.89621 32 0.03125 30.135 0.03125 27.8392V4.16081C0.0312096 1.86496 1.89617 0 4.19202 0Z" fill="#0263D1"/>
<path opacity="0.302" fill-rule="evenodd" clip-rule="evenodd" d="M14.8877 0V9.38029H23.9664L14.8877 0Z" fill="white"/>
<path d="M16.2187 16.6494H7.78011C7.39233 16.6494 7.07227 16.3355 7.07227 15.9477C7.07227 15.56 7.39233 15.2461 7.78011 15.2461H16.2187C16.6064 15.2461 16.9203 15.56 16.9203 15.9477C16.9203 16.3355 16.6064 16.6494 16.2187 16.6494ZM13.4058 25.0879H7.78011C7.39233 25.0879 7.07227 24.774 7.07227 24.3863C7.07227 23.9986 7.39233 23.6846 7.78011 23.6846H13.4058C13.7936 23.6846 14.1075 23.9986 14.1075 24.3863C14.1075 24.774 13.7936 25.0879 13.4058 25.0879ZM16.2187 22.2751H7.78011C7.39233 22.2751 7.07227 21.9612 7.07227 21.5734C7.07227 21.1857 7.39233 20.8718 7.78011 20.8718H16.2187C16.6064 20.8718 16.9203 21.1857 16.9203 21.5734C16.9203 21.9612 16.6064 22.2751 16.2187 22.2751ZM16.2187 19.4623H7.78011C7.39233 19.4623 7.07227 19.1483 7.07227 18.7606C7.07227 18.3729 7.39233 18.0589 7.78011 18.0589H16.2187C16.6064 18.0589 16.9203 18.3729 16.9203 18.7606C16.9203 19.1483 16.6064 19.4623 16.2187 19.4623Z" fill="white"/>
</g>
<defs>
<clipPath id="clip0_2167_43949">
<rect width="24" height="32" fill="white"/>
</clipPath>
</defs>
</svg>
