<svg width="24" height="32" viewBox="0 0 24 32" fill="none" xmlns="http://www.w3.org/2000/svg">
<g clip-path="url(#clip0_2463_15980)">
<path fill-rule="evenodd" clip-rule="evenodd" d="M4.20008 0H14.8987L23.9662 9.45128V27.8341C23.9662 30.1369 22.1031 32 19.8083 32H4.20008C1.89724 32 0.0341797 30.1369 0.0341797 27.8341V4.1659C0.0341393 1.86306 1.8972 0 4.20008 0Z" fill="#E5252A"/>
<path opacity="0.302" fill-rule="evenodd" clip-rule="evenodd" d="M14.8867 0V9.37931H23.9622L14.8867 0Z" fill="white"/>
<path d="M4.66211 23.8763V18.0312H7.14887C7.76457 18.0312 8.25234 18.1992 8.62015 18.543C8.98796 18.8788 9.17188 19.3346 9.17188 19.9023C9.17188 20.47 8.98796 20.9258 8.62015 21.2616C8.25234 21.6055 7.76457 21.7734 7.14887 21.7734H6.15736V23.8763H4.66211ZM6.15736 20.502H6.98096C7.20483 20.502 7.38075 20.4541 7.50071 20.3421C7.62063 20.2382 7.68464 20.0942 7.68464 19.9024C7.68464 19.7105 7.62067 19.5665 7.50071 19.4626C7.38079 19.3506 7.20487 19.3027 6.98096 19.3027H6.15736V20.502ZM9.78754 23.8763V18.0312H11.8585C12.2663 18.0312 12.6501 18.0872 13.0099 18.2072C13.3697 18.3271 13.6976 18.495 13.9854 18.7269C14.2733 18.9508 14.5052 19.2546 14.6731 19.6385C14.833 20.0223 14.921 20.4621 14.921 20.9578C14.921 21.4456 14.833 21.8853 14.6731 22.2691C14.5052 22.6529 14.2733 22.9568 13.9854 23.1807C13.6976 23.4125 13.3697 23.5804 13.0099 23.7004C12.6501 23.8203 12.2663 23.8763 11.8585 23.8763H9.78754ZM11.2508 22.605H11.6826C11.9145 22.605 12.1304 22.581 12.3303 22.525C12.5222 22.4691 12.7061 22.3811 12.882 22.2612C13.0499 22.1412 13.1858 21.9733 13.2818 21.7494C13.3777 21.5255 13.4257 21.2616 13.4257 20.9578C13.4257 20.6459 13.3777 20.3821 13.2818 20.1582C13.1858 19.9343 13.0499 19.7664 12.882 19.6465C12.7061 19.5265 12.5222 19.4386 12.3303 19.3826C12.1304 19.3266 11.9145 19.3026 11.6826 19.3026H11.2508V22.605ZM15.6726 23.8763V18.0312H19.8305V19.3026H17.1679V20.2381H19.2948V21.5015H17.1679V23.8763H15.6726Z" fill="white"/>
</g>
<defs>
<clipPath id="clip0_2463_15980">
<rect width="24" height="32" fill="white"/>
</clipPath>
</defs>
</svg>
