<svg width="24" height="32" viewBox="0 0 24 32" fill="none" xmlns="http://www.w3.org/2000/svg">
<g clip-path="url(#clip0_2463_19935)">
<path fill-rule="evenodd" clip-rule="evenodd" d="M4.20106 0H14.8997L23.9672 9.45128V27.8341C23.9672 30.1369 22.1041 32 19.8092 32H4.20106C1.89822 32 0.0351563 30.1369 0.0351563 27.8341V4.1659C0.0351158 1.86306 1.89818 0 4.20106 0Z" fill="#F1C405"/>
<path opacity="0.302" fill-rule="evenodd" clip-rule="evenodd" d="M14.8887 0V9.37931H23.9641L14.8887 0Z" fill="white"/>
<path d="M3.54102 17.7004H5.74602C6.45702 17.7004 7.01502 17.8984 7.43802 18.2944C7.86102 18.6814 8.07702 19.2034 8.07702 19.8424C8.07702 20.4724 7.86102 20.9764 7.43802 21.3454C7.01502 21.7144 6.45702 21.9034 5.74602 21.9034H4.85502V24.0004H3.54102V17.7004ZM4.85502 20.7694H5.66502C6.39402 20.7694 6.76302 20.4634 6.76302 19.8424C6.76302 19.2214 6.39402 18.9064 5.66502 18.9064H4.85502V20.7694Z" fill="white"/>
<path d="M10.2427 24.0004H8.92871V17.7004H10.2427L13.0507 21.8584H13.1137V17.7004H14.4277V24.0004H13.1137L10.3057 19.8424H10.2427V24.0004Z" fill="white"/>
<path d="M18.7427 20.5804H21.4427C21.5867 21.6334 21.3257 22.5784 20.7947 23.1634C20.2637 23.7484 19.4987 24.0904 18.6437 24.0904C17.7347 24.0904 16.9607 23.7844 16.3217 23.1814C15.6917 22.5694 15.3767 21.7954 15.3767 20.8504C15.3767 19.9144 15.6917 19.1404 16.3307 18.5284C16.9697 17.9164 17.7437 17.6104 18.6437 17.6104C19.4897 17.6104 20.1917 17.8624 20.7587 18.3574L19.9667 19.2484C19.5797 18.9784 19.1657 18.8434 18.7247 18.8434C18.1577 18.8434 17.6807 19.0324 17.3027 19.4104C16.9337 19.7884 16.7447 20.2654 16.7447 20.8504C16.7447 21.4354 16.9247 21.9214 17.2757 22.2994C17.6357 22.6684 18.0947 22.8574 18.6617 22.8574C19.5617 22.8574 20.0927 22.4614 20.2457 21.6694H18.7427V20.5804Z" fill="white"/>
</g>
<defs>
<clipPath id="clip0_2463_19935">
<rect width="24" height="32" fill="white"/>
</clipPath>
</defs>
</svg>
