<svg width="262" height="46" viewBox="0 0 262 46" fill="none" xmlns="http://www.w3.org/2000/svg">
<path d="M59.4445 30.4892H73.3017V34.2316H55.4883V4.3999H73.0879V8.14223H59.4445V17.2949H72.0187V20.9944H59.4445V30.4892Z" fill="#363A44"/>
<path d="M86.8616 23.5818C86.8616 20.3741 87.8881 17.701 89.9624 15.5626C90.7323 14.7713 91.5877 14.1298 92.5286 13.638L92.8066 12.9323H88.8076L82.1142 30.2325L75.4208 12.9323H71.4219L79.9544 34.2314H84.2955L87.2679 26.8109C87.0113 25.8058 86.8616 24.7366 86.8616 23.5818Z" fill="#363A44"/>
<path d="M91.1367 25.4423C91.5002 27.3456 92.377 28.8211 93.767 29.869C95.1356 30.9168 96.8464 31.4514 98.8565 31.4514C101.679 31.4514 103.711 30.425 104.994 28.3507L108.137 30.147C106.063 33.3547 102.941 34.9585 98.771 34.9585C95.3922 34.9585 92.6336 33.9107 90.5165 31.7936C88.3994 29.6765 87.3516 27.0034 87.3516 23.7529C87.3516 20.5452 88.378 17.8722 90.4523 15.7337C92.5267 13.5952 95.2211 12.5474 98.5144 12.5474C101.637 12.5474 104.181 13.6594 106.17 15.8406C108.138 18.0432 109.121 20.6949 109.121 23.7957C109.121 24.3303 109.078 24.8863 108.993 25.4637H91.1367V25.4423ZM98.5144 16.0331C96.5256 16.0331 94.879 16.5891 93.5745 17.7225C92.27 18.8345 91.4574 20.3528 91.1367 22.2132H105.379C105.058 20.2031 104.267 18.6634 102.984 17.6155C101.701 16.5463 100.204 16.0331 98.5144 16.0331Z" fill="#363A44"/>
<path d="M126.294 16.5036V13.9588C124.904 12.911 123.193 12.3763 121.161 12.3763C118.061 12.3763 115.773 13.5739 114.254 15.9904V12.9323H110.555V34.2315H114.254V22.9404C114.254 20.5453 114.832 18.7918 115.965 17.637C117.098 16.4822 118.595 15.9048 120.434 15.9048C122.081 15.9048 123.386 16.3753 124.305 17.3376C125.246 18.2999 125.716 19.6258 125.716 21.3579V34.2315H129.416V21.1441C129.416 19.3478 129.074 17.8081 128.411 16.5036H126.294Z" fill="#363A44"/>
<path d="M139.999 16.3539H134.332V27.9016C134.332 28.9495 134.546 29.6979 134.952 30.147C135.359 30.5961 136 30.8099 136.856 30.8313C137.711 30.8527 138.759 30.8313 139.999 30.7672V34.0818C136.77 34.5095 134.396 34.2529 132.878 33.2906C131.381 32.3496 130.611 30.5319 130.611 27.9016V16.3539H126.398V12.7826H130.611V7.92829L134.311 6.81628V12.7826H139.978L139.999 16.3539Z" fill="#363A44"/>
<path d="M152.98 12.2267C155.953 12.2267 158.498 13.3173 160.615 15.4772C162.71 17.6584 163.758 20.3101 163.758 23.4323C163.758 26.5544 162.71 29.2061 160.615 31.3874C158.519 33.5686 155.974 34.6379 152.98 34.6379C149.452 34.6379 146.779 33.2265 144.918 30.4251V42.6144H141.219V12.7827H144.918V16.4395C146.779 13.6381 149.473 12.2267 152.98 12.2267ZM152.51 31.0666C154.648 31.0666 156.423 30.3395 157.877 28.864C159.332 27.4098 160.059 25.5921 160.059 23.4323C160.059 21.2724 159.332 19.4547 157.877 18.0006C156.423 16.5464 154.648 15.7979 152.51 15.7979C150.35 15.7979 148.554 16.525 147.1 18.0006C145.645 19.4547 144.918 21.2724 144.918 23.4323C144.918 25.5921 145.645 27.4098 147.1 28.864C148.554 30.3181 150.35 31.0666 152.51 31.0666Z" fill="#363A44"/>
<path d="M168.766 25.143C169.129 27.0463 170.006 28.5218 171.396 29.5697C172.765 30.6175 174.475 31.1521 176.485 31.1521C179.308 31.1521 181.34 30.1257 182.623 28.0513L185.766 29.8477C183.692 33.0554 180.57 34.6592 176.4 34.6592C173.021 34.6592 170.262 33.6114 168.145 31.4943C166.028 29.3772 164.98 26.7041 164.98 23.4536C164.98 20.2459 166.007 17.5728 168.081 15.4344C170.156 13.2959 172.85 12.248 176.143 12.248C179.265 12.248 181.81 13.3601 183.799 15.5413C185.766 17.7439 186.75 20.3956 186.75 23.4964C186.75 24.031 186.707 24.587 186.622 25.1644H168.766V25.143ZM176.143 15.7124C174.154 15.7124 172.508 16.2684 171.203 17.4018C169.899 18.5138 169.086 20.0321 168.766 21.8925H183.008C182.687 19.8824 181.896 18.3427 180.613 17.2948C179.33 16.247 177.833 15.7124 176.143 15.7124Z" fill="#363A44"/>
<path d="M206.723 4.25012H210.422V34.0818H206.723V30.425C204.884 33.2478 202.189 34.6378 198.661 34.6378C195.688 34.6378 193.143 33.5472 191.026 31.3873C188.931 29.2061 187.883 26.5544 187.883 23.4322C187.883 20.31 188.931 17.6583 191.026 15.4771C193.122 13.2959 195.667 12.2266 198.661 12.2266C202.189 12.2266 204.862 13.638 206.723 16.4394V4.25012ZM199.131 31.0665C201.291 31.0665 203.087 30.3395 204.542 28.8639C205.996 27.4098 206.723 25.5921 206.723 23.4322C206.723 21.2724 205.996 19.4547 204.542 18.0005C203.087 16.5463 201.291 15.7979 199.131 15.7979C196.993 15.7979 195.218 16.5249 193.764 18.0005C192.309 19.4547 191.582 21.2724 191.582 23.4322C191.582 25.5921 192.309 27.4098 193.764 28.8639C195.218 30.3181 197.014 31.0665 199.131 31.0665Z" fill="#363A44"/>
<path d="M230.395 4.25012H234.094V34.0818H230.395V30.425C228.556 33.2478 225.861 34.6378 222.333 34.6378C219.36 34.6378 216.815 33.5472 214.698 31.3873C212.603 29.2061 211.555 26.5758 211.555 23.4322C211.555 20.31 212.603 17.6583 214.698 15.4771C216.794 13.2959 219.339 12.2266 222.333 12.2266C225.861 12.2266 228.534 13.638 230.395 16.4394V4.25012ZM222.803 31.0665C224.963 31.0665 226.759 30.3395 228.213 28.8639C229.668 27.4098 230.395 25.5921 230.395 23.4322C230.395 21.2724 229.668 19.4547 228.213 18.0005C226.759 16.5463 224.963 15.7979 222.803 15.7979C220.665 15.7979 218.89 16.5249 217.435 18.0005C215.981 19.4547 215.254 21.2724 215.254 23.4322C215.254 25.5921 215.981 27.4098 217.435 28.8639C218.89 30.3181 220.686 31.0665 222.803 31.0665Z" fill="#363A44"/>
<path d="M235.332 34.0818V2.96704H239.032V34.0818H235.332Z" fill="#363A44"/>
<path d="M244.016 25.143C244.379 27.0463 245.256 28.5218 246.646 29.5697C248.015 30.6175 249.725 31.1521 251.735 31.1521C254.558 31.1521 256.59 30.1257 257.873 28.0513L261.016 29.8477C258.942 33.0554 255.82 34.6592 251.65 34.6592C248.271 34.6592 245.512 33.6114 243.395 31.4943C241.278 29.3772 240.23 26.7041 240.23 23.4536C240.23 20.2459 241.257 17.5728 243.331 15.4344C245.406 13.2959 248.1 12.248 251.393 12.248C254.515 12.248 257.06 13.3601 259.049 15.5413C261.016 17.7439 262 20.3956 262 23.4964C262 24.031 261.957 24.587 261.872 25.1644H244.016V25.143ZM251.372 15.7124C249.383 15.7124 247.737 16.2684 246.432 17.4018C245.128 18.5138 244.315 20.0321 243.994 21.8925H258.236C257.916 19.8824 257.124 18.3427 255.841 17.2948C254.58 16.247 253.083 15.7124 251.372 15.7124Z" fill="#363A44"/>
<path d="M20.868 11.5852L22.7926 13.5312C22.814 13.5526 22.8567 13.5526 22.8781 13.5312L24.8455 11.5852L31.0898 5.40499C31.1112 5.3836 31.154 5.3836 31.1754 5.40499L33.0145 7.26545C33.0358 7.28684 33.0786 7.28684 33.1 7.26545L35.6662 4.72067C35.6876 4.69929 35.6876 4.65652 35.6662 4.63514L31.1754 0.08019C31.154 0.0588053 31.1112 0.0588053 31.0898 0.08019L24.8455 6.26038L22.8781 8.20638C22.8567 8.22776 22.814 8.22776 22.7926 8.20638L20.868 6.26038L14.6878 0.0160385C14.6664 -0.00534618 14.6236 -0.00534618 14.6022 0.0160385L10.0473 4.50683C10.0259 4.52821 10.0259 4.57098 10.0473 4.59236L12.6135 7.2013C12.6348 7.22269 12.6776 7.22269 12.699 7.2013L14.5808 5.34083C14.6022 5.31945 14.645 5.31945 14.6664 5.34083L20.868 11.5852Z" fill="#8FD50D"/>
<path d="M24.7596 33.9964L22.8349 32.0503C22.8136 32.029 22.7708 32.029 22.7494 32.0503L20.782 33.9964L14.5377 40.1765C14.5163 40.1979 14.4735 40.1979 14.4521 40.1765L12.6131 38.3161C12.5917 38.2947 12.5489 38.2947 12.5275 38.3161L9.96135 40.8608C9.93997 40.8822 9.93997 40.925 9.96135 40.9464L14.4521 45.5013C14.4735 45.5227 14.5163 45.5227 14.5377 45.5013L20.782 39.3211L22.7494 37.3751C22.7708 37.3538 22.8136 37.3538 22.8349 37.3751L24.7596 39.3211L30.9398 45.5655C30.9611 45.5869 31.0039 45.5869 31.0253 45.5655L35.5802 41.0747C35.6016 41.0533 35.6016 41.0105 35.5802 40.9892L33.0141 38.3802C32.9927 38.3588 32.9499 38.3588 32.9285 38.3802L31.0467 40.2407C31.0253 40.2621 30.9825 40.2621 30.9611 40.2407L24.7596 33.9964Z" fill="#8FD50D"/>
<path d="M11.6065 24.7582L13.5526 22.8336C13.5739 22.8122 13.5739 22.7694 13.5526 22.7481L11.6065 20.7807L5.42637 14.5363C5.40499 14.515 5.40499 14.4722 5.42637 14.4508L7.28684 12.6117C7.30822 12.5903 7.30822 12.5476 7.28684 12.5262L4.74206 9.96001C4.72067 9.93862 4.6779 9.93862 4.65652 9.96001L0.101578 14.4508C0.080193 14.4722 0.080193 14.515 0.101578 14.5363L6.28176 20.7807L8.22777 22.7481C8.24915 22.7694 8.24915 22.8122 8.22777 22.8336L6.28176 24.7582L0.0160385 30.917C-0.00534618 30.9384 -0.00534618 30.9812 0.0160385 31.0026L4.50683 35.5575C4.52821 35.5789 4.57098 35.5789 4.59237 35.5575L7.2013 32.9913C7.22268 32.97 7.22268 32.9272 7.2013 32.9058L5.34083 31.0239C5.31945 31.0026 5.31945 30.9598 5.34083 30.9384L11.6065 24.7582Z" fill="#8FD50D"/>
<path d="M32.6692 27.367L28.1357 22.7479L28.0929 22.7052L35.7914 15.0922L38.2934 12.633C38.3148 12.6116 38.3148 12.5688 38.2934 12.5474L35.77 10.0027L33.1611 7.35094C33.1397 7.32956 33.0969 7.32956 33.0755 7.35094L30.5949 9.7888L27.4513 12.8896L22.8323 17.4445L22.7895 17.4873L15.1765 9.7888L12.7173 7.28679C12.6959 7.26541 12.6531 7.26541 12.6317 7.28679L10.0228 9.85296L10.0014 9.83157L7.34972 12.4405C7.32834 12.4619 7.32834 12.5047 7.34972 12.526L9.78758 15.0067L12.8884 18.1502L17.4433 22.7479L17.4861 22.7907L9.78758 30.4037L7.28557 32.8629C7.26419 32.8843 7.26419 32.9271 7.28557 32.9484L9.83035 35.536L12.4393 38.1877C12.4607 38.2091 12.5034 38.2091 12.5248 38.1877L15.0055 35.7498L18.149 32.6491L22.7895 28.1369L22.8323 28.0941L30.4452 35.7926L32.9045 38.2946C32.9258 38.316 32.9686 38.316 32.99 38.2946L35.5989 35.7071L35.5775 35.6857L38.2079 33.0767C38.2292 33.0554 38.2292 33.0126 38.2079 32.9912L35.77 30.5106L32.6692 27.367ZM32.5837 34.4881L22.8323 24.7367C22.8109 24.7153 22.7681 24.7153 22.7467 24.7367L12.9953 34.4881C12.9739 34.5095 12.9311 34.5095 12.9097 34.4881L11.092 32.6704C11.0707 32.6491 11.0707 32.6063 11.092 32.5849L20.8435 22.8335C20.8649 22.8121 20.8649 22.7693 20.8435 22.7479L11.092 12.9965C11.0707 12.9751 11.0707 12.9324 11.092 12.911L12.9097 11.0933C12.9311 11.0719 12.9739 11.0719 12.9953 11.0933L22.7467 20.8447C22.7681 20.8661 22.8109 20.8661 22.8323 20.8447L32.5837 11.0933C32.6051 11.0719 32.6478 11.0719 32.6692 11.0933L34.4869 12.911C34.5083 12.9324 34.5083 12.9751 34.4869 12.9965L24.7355 22.7479C24.7141 22.7693 24.7141 22.8121 24.7355 22.8335L34.4869 32.5849C34.5083 32.6063 34.5083 32.6491 34.4869 32.6704L32.6692 34.4881C32.6478 34.5095 32.6051 34.5095 32.5837 34.4881Z" fill="#8FD50D"/>
<path d="M37.376 22.8122C37.3546 22.7908 37.3546 22.748 37.376 22.7267L39.322 20.802L45.5663 14.6218C45.5877 14.6005 45.5877 14.5577 45.5663 14.5363L41.0755 9.98137C41.0542 9.95999 41.0114 9.95999 40.99 9.98137L38.3811 12.5475C38.3597 12.5689 38.3597 12.6117 38.3811 12.6331L40.2415 14.5149C40.2629 14.5363 40.2629 14.5791 40.2415 14.6005L33.9972 20.7806L32.0512 22.7053C32.0298 22.7267 32.0298 22.7694 32.0512 22.7908L33.9972 24.7582L40.1774 31.0025C40.1988 31.0239 40.1988 31.0667 40.1774 31.0881L38.3169 32.9272C38.2955 32.9485 38.2955 32.9913 38.3169 33.0127L40.8617 35.5789C40.8831 35.6002 40.9258 35.6002 40.9472 35.5789L45.5022 31.0881C45.5236 31.0667 45.5236 31.0239 45.5022 31.0025L39.322 24.7582L37.376 22.8122Z" fill="#8FD50D"/>
<path d="M22.7478 20.9303L20.9301 22.748C20.9087 22.7694 20.9087 22.8122 20.9301 22.8336L22.7478 24.6513C22.7692 24.6727 22.812 24.6727 22.8333 24.6513L24.651 22.8336C24.6724 22.8122 24.6724 22.7694 24.651 22.748L22.8333 20.9303C22.812 20.909 22.7692 20.909 22.7478 20.9303Z" fill="#8FD50D"/>
</svg>
