<svg width="79" height="79" viewBox="0 0 79 79" fill="none" xmlns="http://www.w3.org/2000/svg">
<path fill-rule="evenodd" clip-rule="evenodd" d="M31.0257 1.98083C33.631 0.678182 36.5038 0 39.4167 0C42.3296 0 45.2023 0.678182 47.8074 1.98083L75.25 15.7021C77.4459 16.8001 78.8333 19.0447 78.8333 21.5C78.8333 23.9553 77.4459 26.1999 75.25 27.2979L68.9294 30.4583L75.25 33.6188C77.4459 34.7168 78.8333 36.9614 78.8333 39.4167C78.8333 41.872 77.4459 44.1166 75.25 45.2145L68.929 48.375L75.25 51.5355C77.4459 52.6334 78.8333 54.878 78.8333 57.3333C78.8333 59.7886 77.4459 62.0332 75.25 63.1312L47.8074 76.8525C45.2023 78.155 42.3296 78.8333 39.4167 78.8333C36.5038 78.8333 33.631 78.155 31.0257 76.8525L3.58333 63.1312C1.38714 62.0332 -0.000111077 59.7886 6.67068e-09 57.333C0.000107507 54.8777 1.38732 52.6334 3.58333 51.5355L9.90408 48.375L3.58333 45.2145C1.38714 44.1166 -0.000111077 41.872 6.67068e-09 39.4163C0.000107507 36.961 1.38732 34.7168 3.58333 33.6188L9.90401 30.4583L3.58333 27.298C1.38714 26.1999 -0.000111077 23.9552 6.67068e-09 21.4998C0.000107507 19.0445 1.38732 16.8001 3.58333 15.7021L31.0257 1.98083ZM39.4167 7.16667C37.6164 7.16667 35.8409 7.58581 34.2309 8.39088L8.01258 21.5L34.2309 34.6093C35.8409 35.4141 37.6164 35.8333 39.4167 35.8333C41.2169 35.8333 42.9921 35.4141 44.6025 34.6093L70.8206 21.5L44.6025 8.39088C42.9921 7.58581 41.2169 7.16667 39.4167 7.16667ZM17.9166 52.3812L8.01258 57.3333L34.2309 70.4422C35.8409 71.2474 37.6164 71.6667 39.4167 71.6667C41.2169 71.6667 42.9921 71.2474 44.6025 70.4422L70.8206 57.3333L60.9167 52.3812L47.8074 58.9358C45.2023 60.2383 42.3296 60.9167 39.4167 60.9167C36.5038 60.9167 33.631 60.2383 31.0257 58.9358L17.9166 52.3812ZM47.8074 41.0191L60.9167 34.4645L70.8206 39.4167L44.6025 52.5256C42.9921 53.3308 41.2169 53.75 39.4167 53.75C37.6164 53.75 35.8409 53.3308 34.2309 52.5256L8.01258 39.4167L17.9166 34.4645L31.0257 41.0191C33.631 42.3217 36.5038 43 39.4167 43C42.3296 43 45.2023 42.3217 47.8074 41.0191Z" fill="#44660E"/>
</svg>
