<svg width="19" height="16" viewBox="0 0 19 16" fill="none" xmlns="http://www.w3.org/2000/svg">
<path fill-rule="evenodd" clip-rule="evenodd" d="M15.0002 15.5C16.8412 15.5 18.3336 14.0076 18.3336 12.1667V4.68557C18.3338 4.67283 18.3338 4.66005 18.3336 4.64725V3.83333C18.3336 1.99238 16.8412 0.5 15.0002 0.5H3.33355C1.49261 0.5 0.000221655 1.99238 0.000221655 3.83333V4.64726C-7.458e-05 4.66005 -7.31892e-05 4.67282 0.000221655 4.68556V12.1667C0.000221655 14.0076 1.49261 15.5 3.33355 15.5H15.0002ZM1.66689 12.1667C1.66689 13.0871 2.41308 13.8333 3.33355 13.8333H15.0002C15.9207 13.8333 16.6669 13.0871 16.6669 12.1667V5.89753L10.4049 8.40234C9.61015 8.72022 8.72362 8.72022 7.92892 8.40234L1.66689 5.89753V12.1667ZM9.78587 6.85488L16.6669 4.10247V3.83333C16.6669 2.91286 15.9207 2.16667 15.0002 2.16667H3.33355C2.41308 2.16667 1.66689 2.91286 1.66689 3.83333V4.10247L8.5479 6.85488C8.94526 7.01382 9.38852 7.01382 9.78587 6.85488Z" fill="#3D424F"/>
</svg>
