<svg width="80" height="80" viewBox="0 0 80 80" fill="none" xmlns="http://www.w3.org/2000/svg">
<path d="M31.3448 48.938C39.7989 57.3922 53.5058 57.3922 61.9599 48.938C70.414 40.4839 70.414 26.7771 61.9599 18.3229C53.5058 9.86881 39.7989 9.86881 31.3448 18.3229C22.8907 26.7771 22.8907 40.4839 31.3448 48.938Z" fill="#F52FAA"/>
<path fill-rule="evenodd" clip-rule="evenodd" d="M19.0195 68.8089L35.5421 52.2862C32.3872 50.2865 29.7141 47.6134 27.7144 44.4585L11.1917 60.9811C10.7826 61.3977 10.4658 61.8958 10.2619 62.443C10.058 62.9901 9.97156 63.574 10.0082 64.1568C10.0668 65.3286 10.5707 66.5355 11.4964 67.4613L12.5276 68.4925C13.4651 69.4299 14.6603 69.9338 15.8439 69.9924C17.0157 70.051 18.1641 69.6643 19.0078 68.8206L19.0195 68.8089Z" fill="#A50F5E"/>
<path fill-rule="evenodd" clip-rule="evenodd" d="M46.6668 56.6341C43.6045 56.6341 40.5722 56.0309 37.743 54.859C34.9138 53.6871 32.3431 51.9694 30.1777 49.804C28.0123 47.6387 26.2946 45.068 25.1227 42.2388C23.9508 39.4095 23.3477 36.3772 23.3477 33.3149C23.3477 30.2526 23.9508 27.2203 25.1227 24.391C26.2946 21.5618 28.0123 18.9911 30.1777 16.8258C32.3431 14.6604 34.9138 12.9427 37.743 11.7708C40.5722 10.5989 43.6045 9.99573 46.6668 9.99573C52.8515 9.99573 58.7828 12.4526 63.156 16.8258C67.5292 21.1989 69.986 27.1303 69.986 33.3149C69.986 39.4995 67.5292 45.4309 63.156 49.804C58.7828 54.1772 52.8515 56.6341 46.6668 56.6341ZM46.6668 53.6225C52.0527 53.6225 57.2181 51.483 61.0265 47.6745C64.8349 43.8661 66.9744 38.7008 66.9744 33.3149C66.9744 27.929 64.8349 22.7637 61.0265 18.9553C57.2181 15.1468 52.0527 13.0073 46.6668 13.0073C41.2809 13.0073 36.1156 15.1468 32.3072 18.9553C28.4988 22.7637 26.3592 27.929 26.3592 33.3149C26.3592 38.7008 28.4988 43.8661 32.3072 47.6745C36.1156 51.483 41.2809 53.6225 46.6668 53.6225Z" fill="#F52FAA"/>
<path fill-rule="evenodd" clip-rule="evenodd" d="M46.6788 51.1969C44.3305 51.1969 42.0052 50.7343 39.8357 49.8357C37.6662 48.937 35.6949 47.6199 34.0344 45.9594C32.3739 44.2989 31.0567 42.3276 30.1581 40.158C29.2594 37.9885 28.7969 35.6632 28.7969 33.3149C28.7969 30.9666 29.2594 28.6413 30.1581 26.4718C31.0567 24.3023 32.3739 22.331 34.0344 20.6705C35.6949 19.01 37.6662 17.6928 39.8357 16.7942C42.0052 15.8955 44.3305 15.433 46.6788 15.433C51.4214 15.433 55.9697 17.317 59.3233 20.6705C62.6768 24.024 64.5608 28.5723 64.5608 33.3149C64.5608 38.0575 62.6768 42.6059 59.3233 45.9594C55.9697 49.3129 51.4214 51.1969 46.6788 51.1969Z" fill="#FEA3E0"/>
</svg>
